<svg width="264" height="72" viewBox="0 0 264 72" fill="none" xmlns="http://www.w3.org/2000/svg">
<path d="M75 42H93V40H75V42ZM75 37H93V35H75V37ZM75 30V32H93V30H75Z" fill="black"/>
<path d="M27 42H45V40H27V42ZM27 37H45V35H27V37ZM27 30V32H45V30H27Z" fill="black"/>
<path d="M124 42H140C140.55 42 141 41.55 141 41C141 40.45 140.55 40 140 40H124C123.45 40 123 40.45 123 41C123 41.55 123.45 42 124 42ZM124 37H140C140.55 37 141 36.55 141 36C141 35.45 140.55 35 140 35H124C123.45 35 123 35.45 123 36C123 36.55 123.45 37 124 37ZM123 31C123 31.55 123.45 32 124 32H140C140.55 32 141 31.55 141 31C141 30.45 140.55 30 140 30H124C123.45 30 123 30.45 123 31Z" fill="black"/>
<path d="M171 42H189V40H171V42ZM171 37H189V35H171V37ZM171 30V32H189V30H171Z" fill="black"/>
<path d="M219 42H237V40H219V42ZM219 37H237V35H219V37ZM219 30V32H237V30H219Z" fill="black"/>
<rect x="0.5" y="0.5" width="263" height="71" rx="4.5" stroke="#7B61FF" stroke-dasharray="10 5"/>
</svg>
